<?xml version="1.0" encoding="UTF-8"?>
<svg version="1.1" xmlns="http://www.w3.org/2000/svg" width="750" height="750">
<path d="M0 0 C1.79068573 2.6860286 2.66055791 4.6626589 3.625 7.6875 C3.88539063 8.49574219 4.14578125 9.30398437 4.4140625 10.13671875 C4.60742188 10.75160156 4.80078125 11.36648437 5 12 C4.0925 12.556875 3.185 13.11375 2.25 13.6875 C-3.35120341 17.67297165 -5.23303493 20.99349846 -6.59540939 27.52816582 C-7.2327803 31.42216428 -7.30820934 35.25257138 -7.31884766 39.19165039 C-7.32889328 40.06103241 -7.3389389 40.93041443 -7.34928894 41.82614136 C-7.37989401 44.6666403 -7.39709238 47.507046 -7.4140625 50.34765625 C-7.43279243 52.33020314 -7.45236718 54.31274222 -7.4727478 56.29527283 C-7.5238822 61.48846814 -7.56360755 66.68168924 -7.60089111 71.875 C-7.64812107 78.11939763 -7.70963822 84.36366916 -7.76873779 90.60796356 C-7.85672193 100.07192428 -7.92664957 109.53586362 -8 119 C16.75 118.67 41.5 118.34 67 118 C66.93829483 101.46369797 66.93829483 101.46369797 66.83984375 84.92773438 C66.7915252 78.18155666 66.74747428 71.43554306 66.72900391 64.68920898 C66.71383968 59.24901535 66.67939769 53.80925153 66.63169098 48.36924934 C66.61687488 46.29571332 66.60895886 44.22211593 66.60811615 42.14852715 C66.60574549 39.23974878 66.57865721 36.33215726 66.54589844 33.42358398 C66.5509288 32.56978149 66.55595917 31.715979 66.56114197 30.83630371 C66.4612355 25.08761409 65.29796901 21.73722151 62 17 C59.72528589 14.94192533 57.7327618 13.3663809 55 12 C55.70028344 8.84872452 56.77597056 5.98357176 58 3 C58.33 2.01 58.66 1.02 59 0 C67.51311002 3.4964559 73.36091715 8.80014067 77.09179688 17.31542969 C80.32849579 26.47262853 79.49044216 36.27770797 79.390625 45.85546875 C79.38315348 47.96966514 79.37746486 50.08386851 79.37347412 52.19807434 C79.3582896 57.73014857 79.3190703 63.26179468 79.2746582 68.79370117 C79.2335498 74.45160127 79.21542999 80.10957135 79.1953125 85.76757812 C79.15256859 96.84523894 79.0844052 107.9225837 79 119 C80.28986816 118.98428955 81.57973633 118.9685791 82.90869141 118.95239258 C87.75807286 118.89752009 92.6074277 118.86344423 97.45703125 118.83520508 C99.54399247 118.82024766 101.63092298 118.79987435 103.71777344 118.77368164 C127.7584028 118.47980051 148.55079994 122.01851041 166.75 139.25 C179.46404476 152.7457401 186.25412781 168.89028692 186.0625 187.375 C186.05798828 188.20644531 186.05347656 189.03789062 186.04882812 189.89453125 C186.03713164 191.92971897 186.01919935 193.96486923 186 196 C181.99617411 194.71664665 178.16253276 193.24853072 174.3125 191.5625 C159.36620487 185.386647 143.59841864 183.04318156 127.99609375 188.66796875 C106.92754298 198.03482118 93.03610713 215.75780117 84.5 236.875 C83.98869173 238.24583509 83.48361501 239.61915188 83 241 C82.34 240.67 81.68 240.34 81 240 C80.875 232.25 80.875 232.25 82 230 C82 229.175 82 228.35 82 227.5 C82 225 82 225 83 223 C83.23353667 221.09834424 83.46516503 219.19641901 83.68359375 217.29296875 C84.39720953 212.12145684 85.72436576 207.05697861 87 202 C86.15695312 201.52949219 85.31390625 201.05898438 84.4453125 200.57421875 C83.34960938 199.95160156 82.25390625 199.32898438 81.125 198.6875 C80.03445313 198.07261719 78.94390625 197.45773437 77.8203125 196.82421875 C75 195 75 195 73 192 C78.94 192 84.88 192 91 192 C91.99 189.03 91.99 189.03 93 186 C94 183.66666667 95 181.33333333 96 179 C96.67828311 177.0039097 97.34686176 175.00445875 98 173 C96.73542969 172.18595703 96.73542969 172.18595703 95.4453125 171.35546875 C93.80175781 170.28232422 93.80175781 170.28232422 92.125 169.1875 C91.03445313 168.47980469 89.94390625 167.77210938 88.8203125 167.04296875 C86 165 86 165 84 162 C91.02673515 162.50343987 98.01940909 163.04187968 105 164 C105.26683594 163.27039063 105.53367187 162.54078125 105.80859375 161.7890625 C109.21646511 153.81129152 115.47909222 147.04780198 120.984375 140.4453125 C122.72172972 138.33759146 124.38288176 136.20050899 126 134 C106.36063797 139.05567735 88.82383547 146.08920863 77 163.4375 C67.37829557 179.8178651 68.24953078 197.74510667 70 216 C67.24791826 213.34427123 64.85681399 210.61981911 62.5625 207.5625 C59.90347914 204.10746653 57.20866438 200.96801455 54 198 C53.52433594 197.53078125 53.04867187 197.0615625 52.55859375 196.578125 C42.27394728 186.96260011 27.85003698 182.24765501 13.875 182.71484375 C-0.96264456 184.1865123 -13.13463539 189.88332365 -26 197 C-25.19892822 197.11069824 -24.39785645 197.22139648 -23.57250977 197.33544922 C-19.90197105 197.84485606 -16.23224173 198.35988444 -12.5625 198.875 C-11.30244141 199.04902344 -10.04238281 199.22304688 -8.74414062 199.40234375 C-2.07967828 200.34198074 4.45688314 201.41939941 11 203 C11.28536621 202.39768555 11.57073242 201.79537109 11.86474609 201.17480469 C13.41717795 198.20081265 15.47987343 195.82415189 17.625 193.25 C18.44226563 192.26515625 19.25953125 191.2803125 20.1015625 190.265625 C20.72804688 189.51796875 21.35453125 188.7703125 22 188 C23.30211046 191.90633137 22.47812346 194.19538173 21.5625 198.1875 C21.27503906 199.45980469 20.98757813 200.73210937 20.69140625 202.04296875 C20.46324219 203.01878906 20.23507812 203.99460937 20 205 C20.54527344 205.24234375 21.09054687 205.4846875 21.65234375 205.734375 C22.40644531 206.06953125 23.16054688 206.4046875 23.9375 206.75 C24.75476563 207.10835937 25.57203125 207.46671875 26.4140625 207.8359375 C28.11149195 208.60003716 29.79492099 209.39619872 31.4609375 210.2265625 C32.23695313 210.60554687 33.01296875 210.98453125 33.8125 211.375 C34.52019531 211.73335937 35.22789062 212.09171875 35.95703125 212.4609375 C37.99223008 213.18649084 37.99223008 213.18649084 39.96484375 212.421875 C42.64621134 210.54852029 44.60232208 208.33851291 46.75 205.875 C47.54921875 204.96492187 48.3484375 204.05484375 49.171875 203.1171875 C49.77515625 202.41851562 50.3784375 201.71984375 51 201 C52.29252526 204.62078268 51.67164791 206.9392835 50.5625 210.5625 C49.64763512 213.58606689 49 215.82974498 49 219 C51.08241789 220.48736023 51.08241789 220.48736023 53.875 221.875 C62.77715775 226.81708518 70.82827586 232.95035853 79 239 C78.67 239.99 78.34 240.98 78 242 C76.329375 241.40251953 76.329375 241.40251953 74.625 240.79296875 C52.47462473 233.03043247 30.14160808 228.79982962 7.8359375 238.35546875 C-7.33896914 246.15194282 -16.19068465 259.26210412 -22 275 C-23.63116629 280.26223436 -24.86029846 285.61296351 -26 291 C-25.17757812 290.21496094 -24.35515625 289.42992187 -23.5078125 288.62109375 C-17.0087246 282.4808392 -10.52704181 276.8741721 -3 272 C-1.02 270.68 0.96 269.36 3 268 C2.34 261.73 1.68 255.46 1 249 C1.99 249 2.98 249 4 249 C5.54295801 251.14775034 6.8759056 253.21834754 8.1875 255.5 C8.73954102 256.43005859 8.73954102 256.43005859 9.30273438 257.37890625 C10.2116735 258.9134788 11.1071247 260.4560256 12 262 C17.27684692 260.30951311 22.30489928 258.21207071 27.390625 256.0234375 C30 255 30 255 32 255 C31.67 254.01 31.34 253.02 31 252 C30.93029948 249.60509014 30.91551997 247.20832309 30.9375 244.8125 C30.94652344 243.54019531 30.95554687 242.26789063 30.96484375 240.95703125 C30.98224609 239.49330078 30.98224609 239.49330078 31 238 C31.66 237.67 32.32 237.34 33 237 C37.455 243.93 37.455 243.93 42 251 C43.3509375 250.65066406 44.701875 250.30132812 46.09375 249.94140625 C47.89576835 249.48151615 49.69785537 249.02189502 51.5 248.5625 C52.8303125 248.21735352 52.8303125 248.21735352 54.1875 247.86523438 C59.46068074 246.5275525 64.58663562 245.55019007 70 245 C70 245.66 70 246.32 70 247 C68.20369141 247.61875 68.20369141 247.61875 66.37109375 248.25 C44.74742424 255.85365796 25.54617835 264.90155241 15.125 286.625 C7.26956157 305.43044352 11.26534681 324.47970372 18 343 C20.14723733 340.22370574 20.14723733 340.22370574 20.4375 337.375 C21.49595664 331.02426013 23.95272466 325.06057445 26.23828125 319.0625 C27.5883263 315.4069934 28.78517952 311.70231003 30 308 C26.37 304.04 22.74 300.08 19 296 C19.33 295.01 19.66 294.02 20 293 C24.95 294.98 29.9 296.96 35 299 C38.63 293.39 42.26 287.78 46 282 C45.0925 280.63875 44.185 279.2775 43.25 277.875 C40.83333333 274.25 38.41666667 270.625 36 267 C40.05819183 267.65503282 43.53971282 268.94559121 47.3125 270.5625 C48.38113281 271.01753906 49.44976562 271.47257812 50.55078125 271.94140625 C51.35902344 272.29074219 52.16726563 272.64007813 53 273 C53.66 272.01 54.32 271.02 55 270 C55.66 270 56.32 270 57 270 C57.24838623 269.42709229 57.49677246 268.85418457 57.75268555 268.26391602 C59.18915024 265.6566862 60.85605438 263.88497907 62.95703125 261.77734375 C63.74013672 260.99166016 64.52324219 260.20597656 65.33007812 259.39648438 C66.14927734 258.58501953 66.96847656 257.77355469 67.8125 256.9375 C68.62009766 256.12216797 69.42769531 255.30683594 70.25976562 254.46679688 C71.04673828 253.68240234 71.83371094 252.89800781 72.64453125 252.08984375 C73.35971924 251.37691162 74.07490723 250.66397949 74.81176758 249.92944336 C77.07210253 247.93642461 79.37394181 246.46685135 82 245 C89.98375389 266.75725297 92.32523823 289.59830362 82.421875 311.2109375 C69.54616004 336.46714762 45.85511522 350.09502681 19.68945312 358.72045898 C12.9435069 360.83455512 6.09610115 362.53023269 -0.7588501 364.24987793 C-43.54403384 374.99633888 -82.7834345 391.17272105 -118 418 C-119.39473275 419.04839518 -120.79027792 420.0957102 -122.18652344 421.14208984 C-122.90209412 421.67845062 -123.61766479 422.2148114 -124.35491943 422.76742554 C-124.89779602 423.17417511 -125.44067261 423.58092468 -126 424 C-126.04562902 392.14324107 -126.08102134 360.28649144 -126.10213066 328.42970746 C-126.10463206 324.66838891 -126.10722071 320.90707041 -126.10986328 317.14575195 C-126.1103879 316.39694382 -126.11091252 315.64813568 -126.11145304 314.87663639 C-126.12015472 302.75338491 -126.1359234 290.6301524 -126.15430559 278.50691216 C-126.17301122 266.06657303 -126.18411813 253.62624383 -126.18817699 241.18589121 C-126.19092067 233.5100573 -126.19958522 225.83427702 -126.21583293 218.15845961 C-126.22765842 212.27180668 -126.22890966 206.38518124 -126.22621536 200.49851608 C-126.22676601 198.08422961 -126.23074996 195.66994112 -126.23841095 193.25566673 C-126.24835483 189.96060705 -126.24597075 186.66577723 -126.24050903 183.37071228 C-126.24633472 182.41447415 -126.2521604 181.45823602 -126.25816262 180.47302097 C-126.19183905 165.67850075 -118.73380666 152.76731895 -109 142 C-108.06027344 140.93845703 -108.06027344 140.93845703 -107.1015625 139.85546875 C-94.18266084 126.06651861 -76.25943647 119.21475806 -57.66474915 118.56336975 C-52.50582598 118.43410576 -47.34768269 118.3686036 -42.1875 118.3125 C-38.22954134 118.25900664 -34.271634 118.20200139 -30.3137207 118.14526367 C-28.34739763 118.1175137 -26.38107383 118.08981478 -24.41474915 118.06217957 C-22.9431661 118.04145304 -21.47158305 118.02072652 -20 118 C-20.00444122 116.87993057 -20.00888245 115.75986115 -20.01345825 114.60585022 C-20.05407844 104.02775818 -20.08401994 93.44968205 -20.10362434 82.87152958 C-20.1140421 77.43376974 -20.1281646 71.99607309 -20.15087891 66.55834961 C-20.17267891 61.30637939 -20.18458372 56.0544698 -20.18975449 50.80245781 C-20.19343741 48.80309534 -20.20062913 46.80373602 -20.21146011 44.80439949 C-20.22607018 41.99460925 -20.22797398 39.18506652 -20.22705078 36.37524414 C-20.23424133 35.55668442 -20.24143188 34.73812469 -20.24884033 33.89476013 C-20.21057777 23.06645514 -17.70839051 14.76327888 -9.96875 6.94921875 C-6.80837423 4.10134283 -3.8802336 1.78490746 0 0 Z " fill="#FBD304" transform="translate(345,105)"/>
<path d="M0 0 C0.33 0 0.66 0 1 0 C1.99 8.91 1.99 8.91 3 18 C4.423125 18.12375 5.84625 18.2475 7.3125 18.375 C12.94008496 18.93051268 18.4534952 19.91389735 24 21 C27.12283677 14.05216076 27.12283677 14.05216076 30 7 C30.66 7 31.32 7 32 7 C31.86851562 8.79244141 31.86851562 8.79244141 31.734375 10.62109375 C31.6498036 15.65362044 31.64008553 20.44873637 34 25 C39.0890051 29.32099228 45.68241576 31.36095268 51.96875 33.34594727 C54 34 54 34 56 35 C56.07012902 60.25211453 56.12300729 85.50421443 56.15543652 110.75640678 C56.17089521 122.4818434 56.19196574 134.20721945 56.22631836 145.93261719 C56.25625116 156.15430814 56.27558225 166.37595523 56.28226548 176.59768879 C56.28617114 182.00834594 56.29532936 187.4188776 56.31719017 192.82949448 C56.33761657 197.9265901 56.34382135 203.02350904 56.33932304 208.12064171 C56.34014549 209.98701756 56.34607433 211.85339957 56.35761642 213.71973991 C56.46412153 231.83658109 56.46412153 231.83658109 53 240 C51.52083333 239.91666667 50.04166667 239.83333333 48.5625 239.75 C47.73878906 239.70359375 46.91507813 239.6571875 46.06640625 239.609375 C37.39513642 237.88616724 30.05284862 232.71395653 22.75 227.97851562 C10.73162935 220.39400568 -2.26758617 218.38505147 -16.296875 220.49609375 C-25.21966809 222.54186367 -32.61413957 226.37427703 -40.17602539 231.41381836 C-52.09936483 239.33132431 -62.59548146 241.93994388 -77.03125 239.484375 C-84.46851325 237.40030673 -90.43726299 233.28382657 -96.76611328 229.01293945 C-109.34263218 220.61200681 -123.25026509 218.14400954 -138.140625 220.49609375 C-146.62788747 222.64215869 -153.94308589 226.5874359 -161.17822266 231.41381836 C-172.27177568 238.78920251 -181.50319098 241.37667452 -195 240 C-202.26941352 238.45096554 -208.24390352 235.49625764 -214.5 231.5625 C-215.29664063 231.08490234 -216.09328125 230.60730469 -216.9140625 230.11523438 C-223.24816751 226.20204577 -223.24816751 226.20204577 -225 222 C-192.60539522 195.12351427 -157.40632804 175.71047783 -118.125 160.625 C-95.37896723 151.83001094 -74.3758629 141.20875791 -56 125 C-55.29488281 124.37867188 -54.58976563 123.75734375 -53.86328125 123.1171875 C-40.84180921 110.88877171 -31.40236959 93.95946625 -30.2109375 76.03125 C-30 74 -30 74 -29 72 C-29.79107193 54.06903633 -33.84249486 37.96531078 -42.328125 22.16015625 C-44 19 -44 19 -45 16 C-39.02103275 15.13108434 -33.22542217 14.8426746 -27.1875 14.875 C-26.31254883 14.87693359 -25.43759766 14.87886719 -24.53613281 14.88085938 C-18.31870495 14.922355 -12.1722178 15.20723808 -6 16 C-5.79697266 14.89011719 -5.79697266 14.89011719 -5.58984375 13.7578125 C-5.07381313 11.34511306 -4.43358522 9.17683141 -3.5625 6.875 C-3.31628906 6.21242188 -3.07007813 5.54984375 -2.81640625 4.8671875 C-2 3 -2 3 0 0 Z " fill="#FF9EBE" transform="translate(475,333)"/>
<path d="M0 0 C10.72003958 1.2340939 18.12287907 4.36048775 27.02294922 10.36523438 C40.5888795 19.4412674 54.51350436 22.27885288 70.6171875 19.33984375 C79.90169086 16.7682367 88.07313122 11.99896735 95.75 6.25 C105.1653208 -0.26829902 116.72838401 -1.32796012 127.87109375 0.4609375 C134.72642652 2.11399646 140.14020839 5.16466888 146 9 C160.46139545 18.16567317 174.43602512 22.45541966 191.58203125 19.3515625 C200.4492269 16.84258574 207.91017226 12.30608146 215.5859375 7.3203125 C226.02031666 0.70419196 236.51719046 -1.47835935 248.78125 0.43359375 C259.45983145 2.90378285 268.55638961 9.22027754 277 16 C275.12420905 21.62737284 268.13613413 24.3811389 263 27 C254.09289523 30.92953789 245.73045722 33.14958392 236.01405334 33.14717102 C235.21519933 33.15084771 234.41634531 33.1545244 233.59328359 33.1583125 C230.91903471 33.1693167 228.24482474 33.17318768 225.57055664 33.17700195 C223.65167112 33.18326924 221.7327868 33.18991628 219.81390381 33.19691467 C213.51266318 33.21793207 207.21142238 33.22831732 200.91015625 33.23828125 C198.73706996 33.24233017 196.56398379 33.24644713 194.39089775 33.25063133 C184.17669314 33.26968068 173.96249573 33.28391027 163.74827677 33.2922433 C151.9792664 33.30200446 140.21044467 33.32829583 128.44150072 33.36874419 C119.33212539 33.39897116 110.22280391 33.41371855 101.11337942 33.41702431 C95.67916483 33.41936796 90.24515182 33.42823847 84.81099129 33.45348549 C79.69160492 33.47688546 74.57255113 33.48095174 69.453125 33.47072411 C67.58358588 33.47023147 65.71402973 33.47647076 63.84454155 33.49028015 C41.26661207 33.64760013 23.63487642 27.25392573 7.125 11.375 C0 4.0141844 0 4.0141844 0 0 Z " fill="#FF9EBE" transform="translate(229,586)"/>
<path d="M0 0 C3.5930129 2.26294685 7.12505912 4.61716428 10.64819336 6.98706055 C23.35043951 15.39310518 37.06745551 17.64379251 51.9375 14.875 C60.95037458 12.78760264 67.86176979 8.40953363 75.5 3.375 C87.36869431 -4.1535248 99.24268078 -5.96341816 113.0390625 -3.4453125 C120.41729469 -1.10478567 126.79786443 3.50495202 133.26171875 7.65625 C140.19623229 12.0683364 146.92349081 14.54890142 155 16 C154.46160353 20.15966586 153.18381652 22.5019654 150.5625 25.75 C149.94503906 26.52859375 149.32757812 27.3071875 148.69140625 28.109375 C147 30 147 30 145 31 C142.49609375 29.77734375 142.49609375 29.77734375 139.4375 27.9375 C137.81134766 26.96683594 137.81134766 26.96683594 136.15234375 25.9765625 C133.5286417 24.33146555 131.01652556 22.61331645 128.5 20.8125 C116.70837196 12.86642993 102.95951369 11.97192297 89.29296875 14.296875 C80.05431983 16.26954025 73.00986399 20.69568547 65.3269043 26.02709961 C54.46139344 33.4122814 43.16016581 35.11622637 30.296875 32.8515625 C22.5543005 30.85170321 15.96996715 26.6805942 9.3125 22.375 C-3.48522493 14.1401003 -16.62274913 11.44726001 -31.70703125 14.19140625 C-41.23273923 16.5304591 -48.66205826 20.97069607 -56.63330078 26.46655273 C-61.23915377 29.60355387 -65.46001954 31.96255048 -71 33 C-71.75023437 33.14953125 -72.50046875 33.2990625 -73.2734375 33.453125 C-85.30862076 35.2447704 -95.90877555 32.52437044 -106 26 C-106.92683594 25.40316406 -107.85367187 24.80632813 -108.80859375 24.19140625 C-109.73800781 23.59199219 -110.66742188 22.99257813 -111.625 22.375 C-119.51070614 17.30801435 -126.73463342 14.47007904 -136 13 C-136 8.90928931 -133.91604634 7.1379053 -131.3125 4.25 C-130.87744141 3.73050781 -130.44238281 3.21101562 -129.99414062 2.67578125 C-127.99319564 0.44065159 -126.73868827 -0.9491842 -123.671875 -1.16015625 C-119.76547203 0.53604504 -116.42928631 2.89316028 -112.9375 5.3125 C-99.21687305 14.51465793 -85.39865395 17.91678113 -69.0625 14.875 C-58.68578703 12.46311536 -50.67681926 6.97896227 -42.1171875 0.83203125 C-30.0017327 -6.28845534 -12.33386874 -6.91571631 0 0 Z " fill="#FF9EBE" transform="translate(368,565)"/>
<path d="M0 0 C4.87072783 4.56630734 8.89156398 9.74976539 13 15 C13.68513672 14.87882812 14.37027344 14.75765625 15.07617188 14.6328125 C18.21626566 14.08154688 21.35807108 13.54070405 24.5 13 C26.11648438 12.71382813 26.11648438 12.71382813 27.765625 12.421875 C28.82265625 12.24140625 29.8796875 12.0609375 30.96875 11.875 C31.93232422 11.70742188 32.89589844 11.53984375 33.88867188 11.3671875 C37.56892931 10.93285706 41.29420215 11 45 11 C45 26.18 45 41.36 45 57 C40 52 40 52 37.81640625 49.7890625 C25.80745765 38.25880682 12.57773348 33.58997775 -3.92822266 33.63085938 C-20.29443748 34.04714874 -34.61313733 40.71803412 -49 48 C-48.64459398 45.31895542 -48.29267314 44.24640757 -46.18994141 42.47607422 C-45.41827637 42.0070166 -44.64661133 41.53795898 -43.8515625 41.0546875 C-43.01109375 40.53519531 -42.170625 40.01570313 -41.3046875 39.48046875 C-40.42039062 38.95066406 -39.53609375 38.42085938 -38.625 37.875 C-37.7484375 37.33746094 -36.871875 36.79992187 -35.96875 36.24609375 C-34.33891775 35.24676235 -32.70592089 34.25256148 -31.06884766 33.26513672 C-29.3542162 32.21660944 -27.67227009 31.11484673 -26 30 C-27.32 24.72 -28.64 19.44 -30 14 C-27 14 -27 14 -24.51953125 16.40625 C-23.60874608 17.43005231 -22.70668808 18.46167034 -21.8125 19.5 C-21.34908203 20.02464844 -20.88566406 20.54929687 -20.40820312 21.08984375 C-19.264645 22.38666224 -18.13132826 23.69249867 -17 25 C-12.50140968 23.5317101 -8.03405378 22.03350612 -3.625 20.3125 C0 19 0 19 3 19 C2.7834375 18.21496094 2.566875 17.42992187 2.34375 16.62109375 C0.8376989 10.93853981 -0.40114396 5.88344475 0 0 Z " fill="#FBD304" transform="translate(486,295)"/>
<path d="M0 0 C0.82593155 -0.00761353 1.6518631 -0.01522705 2.50282288 -0.02307129 C4.24688703 -0.03386006 5.99101572 -0.03673035 7.73510742 -0.03222656 C10.3980728 -0.03125441 13.05815381 -0.07288142 15.72070312 -0.1171875 C17.41796276 -0.12239502 19.11523238 -0.12508269 20.8125 -0.125 C21.60534897 -0.14139526 22.39819794 -0.15779053 23.21507263 -0.17468262 C27.47948108 -0.12159619 29.01186349 0.09561399 32.45141602 2.88085938 C35.3009223 6.52921868 35.80817353 8.74934886 35.765625 13.4296875 C35.31010658 16.60009567 33.71949968 18.2879902 31.47265625 20.46875 C28.23955783 22.08529921 24.69470268 21.67442585 21.140625 21.70703125 C20.31186356 21.715103 19.48310211 21.72317474 18.62922668 21.73149109 C16.8732004 21.74533221 15.11714721 21.75605424 13.36108398 21.76391602 C10.68095616 21.78111651 8.00206597 21.82499926 5.32226562 21.86914062 C3.61589449 21.87926879 1.90951286 21.88778451 0.203125 21.89453125 C-0.99555962 21.92079338 -0.99555962 21.92079338 -2.21846008 21.94758606 C-6.12663575 21.9324212 -8.06229053 21.76159008 -11.44799805 19.62963867 C-13.99932963 16.97825487 -15.43644379 15.30502968 -15.83984375 11.59375 C-15.41201142 7.31542674 -13.92405665 4.89985617 -10.95092773 1.85351562 C-7.41949926 -0.16424022 -3.96192978 0.00100393 0 0 Z " fill="#FBD304" transform="translate(364.52734375,95.53125)"/>
<path d="M0 0 C0.59598632 8.5689589 0.49123266 15.0911937 -5 22 C-10.94436734 27.52964403 -16.23930599 27.50329375 -23.99609375 27.3359375 C-29.04772264 27.05288721 -32.46114843 25.67289898 -36 22 C-39.62340154 17.87334824 -41.19883124 14.21279341 -41.62890625 8.73046875 C-41.70310791 7.84125732 -41.77730957 6.9520459 -41.85375977 6.03588867 C-41.90201904 5.36404541 -41.95027832 4.69220215 -42 4 C-41.13310547 3.9498877 -40.26621094 3.89977539 -39.37304688 3.84814453 C-36.12232414 3.65659339 -32.87210639 3.45821557 -29.62207031 3.25537109 C-28.2218424 3.16934697 -26.82144985 3.08595707 -25.42089844 3.00537109 C-16.93277701 2.51497321 -8.31686676 0 0 0 Z " fill="#FF9EBE" transform="translate(487,626)"/>
<path d="M0 0 C7.0474732 0.81316998 7.0474732 0.81316998 10.4296875 1.4765625 C20.85337861 3.50087353 31.41465565 3.65242996 42 4 C41.87505498 5.58917983 41.74033647 7.17759302 41.6015625 8.765625 C41.49062256 10.09255371 41.49062256 10.09255371 41.37744141 11.44628906 C40.80473742 15.32111683 39.38476547 17.9466087 37 21 C36.59652344 21.58136719 36.19304687 22.16273438 35.77734375 22.76171875 C32.9060873 26.04643613 30.25465958 27.12377801 25.9765625 27.51171875 C24.46428514 27.57234128 22.95091445 27.60968367 21.4375 27.625 C20.7050708 27.63587646 19.9726416 27.64675293 19.21801758 27.65795898 C14.07714748 27.52369771 11.06484172 26.35971611 7 23 C5.13671875 20.96484375 5.13671875 20.96484375 3.6875 18.9375 C2.95080078 17.93009766 2.95080078 17.93009766 2.19921875 16.90234375 C-0.13471187 13.19998475 -0.10837087 10.07849131 -0.0625 5.8125 C-0.05347656 4.72582031 -0.04445313 3.63914062 -0.03515625 2.51953125 C-0.02355469 1.68808594 -0.01195312 0.85664062 0 0 Z " fill="#FF9EBE" transform="translate(262,626)"/>
</svg>
